<?xml version="1.0" standalone="no"?><!DOCTYPE svg PUBLIC "-//W3C//DTD SVG 1.1//EN" "http://www.w3.org/Graphics/SVG/1.1/DTD/svg11.dtd"><svg t="1751116878272" class="icon" viewBox="0 0 1024 1024" version="1.1" xmlns="http://www.w3.org/2000/svg" p-id="28411" xmlns:xlink="http://www.w3.org/1999/xlink" width="200" height="200"><path d="M269.127036 786.67463c-6.227512 0-12.455024 0-18.682536 6.226295-37.365071 12.455024-24.910048 74.728927 18.682536 74.728927h548.021047c24.910048 0 37.363855-12.455024 37.363856-31.13756 6.228728-24.910048-6.226296-49.818879-37.363856-49.818879H269.127036v0.001217z" p-id="28412" fill="#007BFF"></path><path d="M929.244514 207.514806v697.481334c0 18.681319-12.455024 31.13756-31.139992 31.137559H194.396893c-49.820095 0-99.640191-37.366288-99.640191-105.866486 0-56.047607 37.365071-105.868919 80.957655-105.868919h641.433726c18.681319 0 37.363855-18.681319 37.363856-37.366287V51.827008c0-18.682536-18.681319-37.365071-37.363856-37.365071H250.4445C119.66675 14.461937 13.799047 120.329639 13.799047 251.107389v610.296167c18.682536 87.185167 80.957655 149.459069 161.91531 149.45907h722.390165c62.276335 0 112.095214-49.818879 112.095214-112.095215V207.514806c0-56.047607-80.955222-56.047607-80.955222 0zM94.756702 251.107389c0-87.185167 68.502631-155.687798 155.687798-155.687797h529.338512v554.248559H175.714357c-31.13756 0-62.275119 6.226296-80.957655 24.910048V251.107389z" p-id="28413" fill="#007BFF"></path></svg>